<svg xmlns="http://www.w3.org/2000/svg" width="512" height="512" viewBox="0 0 512 512">
  <defs>
    <linearGradient id="bg" x1="0" y1="0" x2="1" y2="1">
      <stop offset="0%" stop-color="#4158D0"/>
      <stop offset="100%" stop-color="#C850C0"/>
    </linearGradient>
    <radialGradient id="glass" cx="50%" cy="35%" r="65%">
      <stop offset="0%" stop-color="rgba(255,255,255,0.45)"/>
      <stop offset="100%" stop-color="rgba(255,255,255,0.04)"/>
    </radialGradient>
    <filter id="softShadow" x="-50%" y="-50%" width="200%" height="200%">
      <feDropShadow dx="0" dy="14" stdDeviation="18" flood-color="#000" flood-opacity="0.3"/>
    </filter>
    <filter id="blurGlass" x="-50%" y="-50%" width="200%" height="200%">
      <feGaussianBlur stdDeviation="8"/>
    </filter>
  </defs>

  <rect x="0" y="0" width="512" height="512" rx="120" ry="120" fill="url(#bg)" filter="url(#softShadow)"/>

  <circle cx="256" cy="256" r="206" fill="url(#glass)" opacity="0.22"/>
  <circle cx="256" cy="256" r="214" fill="none" stroke="rgba(255,255,255,0.35)" stroke-width="8" filter="url(#blurGlass)"/>

  <circle cx="256" cy="284" r="90" fill="#FFE8D5"/>
  <path d="M166 258Q180 165 256 168Q332 165 346 258Q334 220 304 223Q289 224 278 236Q246 214 206 223Q182 227 166 258Z" fill="#111111"/>

  <ellipse cx="228" cy="286" rx="18" ry="24" fill="#121212"/>
  <ellipse cx="284" cy="286" rx="18" ry="24" fill="#121212"/>
  <ellipse cx="223" cy="276" rx="4" ry="6" fill="#FFFFFF"/>
  <ellipse cx="279" cy="276" rx="4" ry="6" fill="#FFFFFF"/>
</svg>
